# xmcd CD database file
#
# Track frame offsets:
#	183
#	14760
#	28668
#	39160
#	54190
#	69850
#	83785
#	98795
#	111915
#	129163
#	144895
#	156838
#	172885
#	187585
#	200378
#	213220
#	227908
#	243720
#	255995
#	269213
#	284185
#
# Disc length: 4368 seconds
#
# Revision: 0
# Processed by: cddbd v1.5.2PL0 Copyright (c) Steve Scherf et al.
# Submitted via: CDex 1.70beta2
#
DISCID=1e110e15
DTITLE=Shaw, Artie - Concerto for Clarinet
DYEAR=1994
DGENRE=Jazz
TTITLE0=Once night stand
TTITLE1=You are a sweet little headache
TTITLE2=Traffic jam
TTITLE3=Sometimes I feel like a motherless child
TTITLE4=Summit ridge drive
TTITLE5=Monsoon
TTITLE6=Pross tchai
TTITLE7=Non-stop flight
TTITLE8=I surrender dear
TTITLE9=I have eyes
TTITLE10=Marinela
TTITLE11=You are giving me a song and a dance
TTITLE12=Lady be good
TTITLE13=Special delivery stomp
TTITLE14=You can tell she comes from Dixie
TTITLE15=Why begin again
TTITLE16=Darling not without you
TTITLE17=Serendade to a savage
TTITLE18=Moonlight and shadows
TTITLE19=Free for all
TTITLE20=Concerto for clarinet
EXTD=YEAR: 1994
EXTT0=
EXTT1=
EXTT2=
EXTT3=
EXTT4=
EXTT5=
EXTT6=
EXTT7=
EXTT8=
EXTT9=
EXTT10=
EXTT11=
EXTT12=
EXTT13=
EXTT14=
EXTT15=
EXTT16=
EXTT17=
EXTT18=
EXTT19=
EXTT20=
PLAYORDER=
